<?xml version="1.0" standalone="no"?>
<!DOCTYPE svg PUBLIC "-//W3C//DTD SVG 20010904//EN"
 "http://www.w3.org/TR/2001/REC-SVG-20010904/DTD/svg10.dtd">
<svg version="1.0" xmlns="http://www.w3.org/2000/svg"
 width="64.000000pt" height="64.000000pt" viewBox="0 0 64.000000 64.000000"
 preserveAspectRatio="xMidYMid meet">
<metadata>
Created by potrace 1.10, written by Peter Selinger 2001-2011
</metadata>
<g transform="translate(0.000000,64.000000) scale(0.100000,-0.100000)"
fill="#1ba965" stroke="none">
<path d="M265 571 c-35 -15 -57 -49 -62 -94 -7 -58 12 -114 50 -154 22 -24 27
-34 16 -37 -8 -2 -37 -12 -66 -21 -74 -23 -113 -70 -113 -135 l0 -50 225 0
225 0 0 43 c0 77 -58 138 -144 153 -58 9 -62 14 -26 35 34 21 69 88 70 132 0
40 -17 33 -25 -10 -10 -56 -31 -89 -70 -113 l-36 -23 -34 33 c-57 55 -70 164
-25 205 30 27 99 30 138 5 18 -11 31 -24 28 -29 -8 -13 -89 -31 -136 -31 -25
0 -39 -4 -35 -10 8 -14 94 -13 136 1 50 17 63 32 50 58 -23 43 -110 64 -166
42z m114 -313 c25 -6 59 -17 74 -25 34 -17 67 -69 67 -105 l0 -28 -205 0 -205
0 0 35 c0 52 40 91 125 119 39 13 76 22 84 20 7 -3 34 -9 60 -16z"/>
</g>
</svg>
